# xmcd
#
# Track frame offsets:
#	150
#	12583
#	24316
#	36668
#	48603
#	58491
#	70373
#	78349
#	90483
#	103058
#	115476
#	130076
#	142690
#	155001
#	167673
#	181054
#	193059
#	205519
#	214144
#	225777
#	239670
#	250439
#	261988
#	274787
#	287565
#	300014
#
# Disc length: 4187
#
# Revision: 1
# Processed by: cddbd v1.5.1PL0 Copyright (c) Steve Scherf et al.
# Submitted via: ExactAudioCopy v0.90b2
# Normalized: r0:DSETVAR1,TDELIM( - )
#
DISCID=7410591a
DTITLE=Various Artist - Hillbilly, As Good as It Gets, Disk 1
DYEAR=1900
DGENRE=Country
TTITLE0=Hank Williams - Move it on Over
TTITLE1=Ernest Tubb - Walking the Floor over You
TTITLE2=Roy Rogers - Headin' for Texas and Home
TTITLE3=Merle Travis - Nine Pound Hammer
TTITLE4=Eddy Arnold - Cattle Call
TTITLE5=Texas Jim Robertson - Filipino Baby
TTITLE6=Eddie Bond - My Bucket's Got a Hole in it
TTITLE7=Hank Williams - The Blues come Around
TTITLE8=Merle Travis - Dark as a Dungeon
TTITLE9=Johnny Bond - I'll Step Aside
TTITLE10=Red Foley - Old Shep
TTITLE11=Ernest Tubb - You Nearly Lose your Mind
TTITLE12=Leon Payne - I Love You Because
TTITLE13=Roy Rogers - I Hope I'm Not Dreaming
TTITLE14=Golden West Cowboys - Tennessee Waltz
TTITLE15=Eddy Arnold - Texarkana Baby
TTITLE16=Hank Williams - Rootie Tootie
TTITLE17=Merle Davis - Lost John
TTITLE18=Eddie Bond - A Heart Full of Heartaches
TTITLE19=Ernest Tubb - Tommorrow Never Comes
TTITLE20=Roy Rogers - My Chickashay Gal
TTITLE21=Eddy Arnold - Bouquet of Roses
TTITLE22=Merle Travis - Tons
TTITLE23=Hank Williams - I'm a Long Gone Daddy
TTITLE24=The Blue Sky Boys - Garden in the Sky
TTITLE25=Vernon Dalhart - The Prisoners's Song
EXTD=
EXTT0=
EXTT1=
EXTT2=
EXTT3=
EXTT4=
EXTT5=
EXTT6=
EXTT7=
EXTT8=
EXTT9=
EXTT10=
EXTT11=
EXTT12=
EXTT13=
EXTT14=
EXTT15=
EXTT16=
EXTT17=
EXTT18=
EXTT19=
EXTT20=
EXTT21=
EXTT22=
EXTT23=
EXTT24=
EXTT25=
PLAYORDER=
